<svg width="1555" height="993" viewBox="0 0 1555 993" fill="none" xmlns="http://www.w3.org/2000/svg">
<rect x="115" y="122" width="1440" height="741" fill="url(#paint0_linear_339_395)"></rect>
<path d="M409.42 900C288.845 902.984 115 993 115 993V855L1555 838V950.5C1555 950.5 1355.4 871.347 1223.97 883C1160.69 888.61 1128.76 914.081 1065.47 919.5C964.347 928.158 907.645 862.929 808.166 883C744.132 895.92 719.571 939.437 655.188 950.5C558.616 967.093 507.386 897.575 409.42 900Z" fill="url(#paint1_linear_339_395)"></path>
<path d="M409.42 93C288.845 90.0159 115 0 115 0V138L1555 155V42.5C1555 42.5 1355.4 121.653 1223.97 110C1160.69 104.39 1128.76 78.9192 1065.47 73.5C964.347 64.8418 907.645 130.071 808.166 110C744.132 97.0801 719.571 53.5625 655.188 42.5C558.616 25.9066 507.386 95.4246 409.42 93Z" fill="url(#paint2_linear_339_395)"></path>
<g clip-path="url(#clip0_339_395)">
<path d="M206.558 777.892C215.511 786.597 229.826 786.395 238.531 777.441C247.237 768.488 247.035 754.173 238.082 745.468C229.128 736.763 214.813 736.964 206.108 745.918C197.403 754.871 197.604 769.187 206.558 777.892Z" fill="#C165FF" stroke="#24325F" stroke-width="3" stroke-miterlimit="10"></path>
<path d="M61.5513 636.91C70.5048 645.615 84.8199 645.414 93.525 636.46C102.23 627.506 102.029 613.191 93.0753 604.486C84.1218 595.781 69.8066 595.983 61.1015 604.936C52.3964 613.89 52.5978 628.205 61.5513 636.91Z" fill="#C165FF" stroke="#24325F" stroke-width="3" stroke-miterlimit="10"></path>
<path d="M225.371 648.851L192.558 616.948C161.58 586.83 112.051 587.528 81.9319 618.506L75.252 625.377C45.1333 656.355 45.83 705.884 76.8082 736.003L109.622 767.905C140.6 798.024 190.129 797.326 220.248 766.348L226.927 759.477C257.046 728.498 256.35 678.969 225.371 648.851Z" fill="#C165FF" stroke="#24325F" stroke-width="3" stroke-miterlimit="10"></path>
<path d="M213.023 669.141L170.088 627.398C150.966 608.806 120.393 609.237 101.802 628.359L85.6497 644.972C67.0583 664.094 67.4883 694.667 86.6103 713.258L129.545 755.002C148.667 773.593 179.24 773.162 197.832 754.04L213.983 737.427C232.575 718.305 232.145 687.732 213.023 669.141Z" fill="#E2CCE5" stroke="#24325F" stroke-width="3" stroke-miterlimit="10"></path>
<path d="M114.316 674.614C122.055 682.138 134.428 681.963 141.952 674.225C149.475 666.486 149.301 654.113 141.563 646.59C133.824 639.066 121.452 639.24 113.928 646.979C106.404 654.717 106.578 667.09 114.316 674.614Z" fill="#222F5A"></path>
<path d="M126.332 658.137C129.355 661.076 134.187 661.008 137.126 657.985C140.064 654.963 139.996 650.131 136.974 647.192C133.951 644.254 129.119 644.322 126.18 647.344C123.242 650.367 123.31 655.199 126.332 658.137Z" fill="#E9EEEE"></path>
<path d="M165.997 724.86C173.735 732.383 186.108 732.209 193.632 724.471C201.156 716.732 200.982 704.359 193.243 696.835C185.505 689.312 173.132 689.486 165.608 697.225C158.084 704.963 158.258 717.336 165.997 724.86Z" fill="#222F5A"></path>
<path d="M178.013 708.383C181.035 711.322 185.868 711.254 188.806 708.231C191.745 705.209 191.677 700.376 188.654 697.438C185.632 694.499 180.8 694.567 177.861 697.59C174.922 700.612 174.99 705.445 178.013 708.383Z" fill="#E9EEEE"></path>
<path d="M131.611 691.386C128.186 695.603 128.42 701.607 131.806 705.215C135.658 709.318 142.736 709.475 147.087 704.999" stroke="#1D1D1B" stroke-width="3" stroke-miterlimit="10" stroke-linecap="round"></path>
<path d="M136.855 630.27C138.513 630.343 141.778 630.714 145.258 632.707C148.997 634.845 151.026 637.724 151.901 639.165" stroke="#1D1D1B" stroke-width="3" stroke-miterlimit="10" stroke-linecap="round"></path>
<path d="M198.336 685.006C199.935 685.465 203.018 686.608 205.922 689.367C209.042 692.338 210.317 695.622 210.831 697.219" stroke="#1D1D1B" stroke-width="3" stroke-miterlimit="10" stroke-linecap="round"></path>
<path d="M90.3987 664.957L100.824 675.092" stroke="#EF819E" stroke-width="7" stroke-miterlimit="10" stroke-linecap="round"></path>
<path d="M168.066 740.468L178.49 750.603" stroke="#EF819E" stroke-width="7" stroke-miterlimit="10" stroke-linecap="round"></path>
<path d="M213.434 619.348C222.961 615.035 233.09 612.466 243.301 610.483L240.502 618.913C235.579 614.654 230.866 610.178 226.386 605.463C224.465 603.427 224.57 600.219 226.605 598.298C227.323 597.626 228.193 597.207 229.089 597.024C231.977 596.438 234.888 595.937 237.811 595.511C246.717 594.221 255.652 593.4 264.682 594.043C262.022 595.63 259.315 596.961 256.586 598.229C248.45 601.914 240.014 604.758 231.421 607.07L233.853 598.346C238.714 602.756 243.365 607.383 247.772 612.237C249.553 614.2 249.414 617.227 247.462 619.018C246.649 619.767 245.618 620.177 244.593 620.256C242.041 620.452 239.467 620.563 236.892 620.653C229.05 620.849 221.223 620.681 213.455 619.326L213.434 619.348Z" fill="#24325F"></path>
<path d="M233.496 752.287L230.809 755.051C200.687 786.033 151.166 786.731 120.183 756.608L87.3698 724.706C58.0023 696.153 55.8697 650.169 81.3945 619.059L77.4119 623.155C47.2892 654.138 47.9858 703.659 78.9681 733.781L111.782 765.684C142.764 795.806 192.285 795.109 222.407 764.126L229.087 757.255C230.647 755.651 232.109 753.974 233.506 752.276L233.496 752.287Z" fill="#514695"></path>
</g>
<defs>
<linearGradient id="paint0_linear_339_395" x1="115" y1="492.5" x2="1555" y2="492.5" gradientUnits="userSpaceOnUse">
<stop stop-color="#7301FF"></stop>
<stop offset="1" stop-color="#F349FF"></stop>
</linearGradient>
<linearGradient id="paint1_linear_339_395" x1="115" y1="915.5" x2="1555" y2="915.5" gradientUnits="userSpaceOnUse">
<stop stop-color="#7301FF"></stop>
<stop offset="1" stop-color="#F349FF"></stop>
</linearGradient>
<linearGradient id="paint2_linear_339_395" x1="115" y1="77.5" x2="1555" y2="77.5" gradientUnits="userSpaceOnUse">
<stop stop-color="#7301FF"></stop>
<stop offset="1" stop-color="#F349FF"></stop>
</linearGradient>
<clipPath id="clip0_339_395">
<rect width="252" height="235" fill="white" transform="translate(163.836 496.017) rotate(44.1936)"></rect>
</clipPath>
</defs>
</svg>